<svg width="135" height="135" viewBox="0 0 135 135" fill="none" xmlns="http://www.w3.org/2000/svg">
<path d="M26.9662 26.9664C26.9662 23.3905 28.3868 19.961 30.9154 17.4324C33.444 14.9038 36.8734 13.4833 40.4494 13.4833H87.6404C91.2164 13.4833 94.6459 14.9038 97.1745 17.4324C99.703 19.961 101.124 23.3905 101.124 26.9664V74.1575H121.348V87.6406C121.348 93.0046 119.218 98.1488 115.425 101.942C111.632 105.735 106.488 107.865 101.124 107.865H72.7618C74.5648 101.514 74.6395 94.7973 72.9781 88.4079C71.3167 82.0185 67.9795 76.1885 63.3113 71.5203C58.6431 66.8521 52.8131 63.5149 46.4237 61.8535C40.0343 60.1921 33.3171 60.2668 26.9662 62.0698V26.9664ZM101.124 101.124C104.7 101.124 108.129 99.7032 110.658 97.1747C113.186 94.6461 114.607 91.2166 114.607 87.6406V80.899H101.124V101.124ZM50.5618 33.708C49.6678 33.708 48.8104 34.0631 48.1783 34.6953C47.5461 35.3274 47.191 36.1848 47.191 37.0788C47.191 37.9728 47.5461 38.8302 48.1783 39.4623C48.8104 40.0944 49.6678 40.4496 50.5618 40.4496H77.5281C78.4221 40.4496 79.2794 40.0944 79.9116 39.4623C80.5437 38.8302 80.8989 37.9728 80.8989 37.0788C80.8989 36.1848 80.5437 35.3274 79.9116 34.6953C79.2794 34.0631 78.4221 33.708 77.5281 33.708H50.5618ZM50.5618 47.1912C49.6678 47.1912 48.8104 47.5463 48.1783 48.1784C47.5461 48.8106 47.191 49.668 47.191 50.562C47.191 51.4559 47.5461 52.3133 48.1783 52.9455C48.8104 53.5776 49.6678 53.9327 50.5618 53.9327H77.5281C78.4221 53.9327 79.2794 53.5776 79.9116 52.9455C80.5437 52.3133 80.8989 51.4559 80.8989 50.562C80.8989 49.668 80.5437 48.8106 79.9116 48.1784C79.2794 47.5463 78.4221 47.1912 77.5281 47.1912H50.5618ZM67.4157 97.753C67.4157 105.799 64.2195 113.515 58.5302 119.205C52.8409 124.894 45.1245 128.09 37.0786 128.09C29.0327 128.09 21.3164 124.894 15.627 119.205C9.93774 113.515 6.74152 105.799 6.74152 97.753C6.74152 89.7071 9.93774 81.9907 15.627 76.3014C21.3164 70.6121 29.0327 67.4159 37.0786 67.4159C45.1245 67.4159 52.8409 70.6121 58.5302 76.3014C64.2195 81.9907 67.4157 89.7071 67.4157 97.753ZM40.4494 84.2698C40.4494 83.3758 40.0943 82.5185 39.4621 81.8863C38.83 81.2542 37.9726 80.899 37.0786 80.899C36.1846 80.899 35.3273 81.2542 34.6951 81.8863C34.063 82.5185 33.7078 83.3758 33.7078 84.2698V94.3822H23.5955C22.7015 94.3822 21.8441 94.7373 21.212 95.3695C20.5798 96.0016 20.2247 96.859 20.2247 97.753C20.2247 98.647 20.5798 99.5044 21.212 100.136C21.8441 100.769 22.7015 101.124 23.5955 101.124H33.7078V111.236C33.7078 112.13 34.063 112.988 34.6951 113.62C35.3273 114.252 36.1846 114.607 37.0786 114.607C37.9726 114.607 38.83 114.252 39.4621 113.62C40.0943 112.988 40.4494 112.13 40.4494 111.236V101.124H50.5618C51.4558 101.124 52.3131 100.769 52.9453 100.136C53.5774 99.5044 53.9326 98.647 53.9326 97.753C53.9326 96.859 53.5774 96.0016 52.9453 95.3695C52.3131 94.7373 51.4558 94.3822 50.5618 94.3822H40.4494V84.2698Z" fill="#012595"/>
</svg>
