<svg width="134" height="134" viewBox="0 0 134 134" fill="none" xmlns="http://www.w3.org/2000/svg">
<path d="M67 134C57.9271 134 49.2467 132.233 40.959 128.7C32.6712 125.167 25.5394 120.412 19.5635 114.437C13.5876 108.461 8.83301 101.329 5.2998 93.041C1.7666 84.7533 0 76.0729 0 67C0 57.9271 1.7666 49.2467 5.2998 40.959C8.83301 32.6712 13.5876 25.5394 19.5635 19.5635C25.5394 13.5876 32.6712 8.83301 40.959 5.2998C49.2467 1.7666 57.9271 0 67 0C76.0729 0 84.7533 1.7666 93.041 5.2998C101.329 8.83301 108.461 13.5876 114.437 19.5635C120.412 25.5394 125.167 32.6712 128.7 40.959C132.233 49.2467 134 57.9271 134 67C134 76.0729 132.233 84.7533 128.7 93.041C125.167 101.329 120.412 108.461 114.437 114.437C108.461 120.412 101.329 125.167 93.041 128.7C84.7533 132.233 76.0729 134 67 134ZM105.211 34.416L99.1914 40.3047C103.728 45.7135 106.672 51.8639 108.024 58.7559C109.377 65.6478 109.093 72.3216 107.174 78.7773C108.308 80.2604 108.875 81.918 108.875 83.75C108.875 86.1055 108.046 88.0902 106.389 89.7041C104.731 91.318 102.768 92.125 100.5 92.125C99.1042 93.8698 97.7956 95.3529 96.5742 96.5742C90.1185 103.03 82.376 106.956 73.3467 108.352C64.3174 109.747 55.9206 108.439 48.1562 104.426C46.4987 103.99 45.1029 103.117 43.9688 101.809C43.7943 101.721 43.4889 101.547 43.0527 101.285C42.6165 101.023 42.2676 100.805 42.0059 100.631C40.6973 99.6712 38.9525 97.7738 36.7715 94.9385C34.5905 92.1032 33.5 89.7695 33.5 87.9375C33.5 86.8034 33.9144 85.8219 34.7432 84.9932C35.5719 84.1644 36.5534 83.75 37.6875 83.75C38.8216 83.75 39.8031 84.1644 40.6318 84.9932C41.4606 85.8219 41.875 86.8034 41.875 87.9375C42.0495 88.8971 42.6602 89.944 43.707 91.0781C45.4518 88.9844 47.6328 87.9375 50.25 87.9375C52.6055 87.9375 54.5902 88.7663 56.2041 90.4238C57.818 92.0814 58.625 94.0443 58.625 96.3125C58.625 97.2721 58.4505 98.2754 58.1016 99.3223C63.5977 100.893 69.3119 100.936 75.2441 99.4531C81.1764 97.9701 86.3236 95.0475 90.6855 90.6855C91.0345 90.3366 91.8633 89.3333 93.1719 87.6758C92.474 86.4544 92.125 85.1458 92.125 83.75C92.125 81.6562 92.8011 79.8242 94.1533 78.2539C95.5055 76.6836 97.2285 75.7676 99.3223 75.5059C100.631 70.6204 100.762 65.5824 99.7148 60.3916C98.668 55.2008 96.487 50.5117 93.1719 46.3242L87.2832 52.3438C90.86 57.1419 92.4303 62.638 91.9941 68.832C91.5579 75.026 89.1589 80.3477 84.7969 84.7969C84.6224 84.9714 84.3825 85.1676 84.0771 85.3857C83.7718 85.6038 83.5755 85.7565 83.4883 85.8438C82.9648 87.6758 81.9616 89.1807 80.4785 90.3584C78.9954 91.5361 77.2943 92.125 75.375 92.125C74.3281 92.125 73.2812 91.9069 72.2344 91.4707C65.9531 92.7793 60.0645 91.9069 54.5684 88.8535C51.6022 87.196 48.7451 84.7969 45.9971 81.6562C43.249 78.5156 41.875 75.026 41.875 71.1875C41.875 70.0534 42.2894 69.0719 43.1182 68.2432C43.9469 67.4144 44.9284 67 46.0625 67C47.1966 67 48.1781 67.4144 49.0068 68.2432C49.8356 69.0719 50.25 70.0534 50.25 71.1875C50.25 73.0195 51.5804 75.1787 54.2412 77.665C56.902 80.1514 58.9303 81.7435 60.3262 82.4414C62.4199 83.3138 64.6445 83.75 67 83.75C67 81.3945 67.8288 79.4098 69.4863 77.7959C71.1439 76.182 73.1068 75.375 75.375 75.375C77.207 75.375 78.8646 75.9421 80.3477 77.0762C82.4414 74.2845 83.5537 71.1875 83.6846 67.7852C83.8154 64.3828 83.0085 61.1986 81.2637 58.2324L74.9824 64.5137C75.2441 65.3861 75.375 66.2148 75.375 67C75.375 69.3555 74.568 71.3402 72.9541 72.9541C71.3402 74.568 69.3773 75.375 67.0654 75.375C64.7536 75.375 62.7689 74.568 61.1113 72.9541C59.4538 71.3402 58.625 69.3773 58.625 67.0654C58.625 64.7536 59.4538 62.7689 61.1113 61.1113C62.7689 59.4538 64.7318 58.625 67 58.625C67.6979 58.625 68.4395 58.7559 69.2246 59.0176L99.4531 28.6582C90.1185 20.7194 79.3008 16.75 67 16.75C57.9271 16.75 49.5303 18.9964 41.8096 23.4893C34.0889 27.9821 27.9821 34.0889 23.4893 41.8096C18.9964 49.5303 16.75 57.9271 16.75 67C16.75 76.0729 18.9964 84.4697 23.4893 92.1904C27.9821 99.9111 34.0889 106.018 41.8096 110.511C49.5303 115.004 57.9271 117.25 67 117.25C76.0729 117.25 84.4697 115.004 92.1904 110.511C99.9111 106.018 106.018 99.9111 110.511 92.1904C115.004 84.4697 117.25 76.0729 117.25 67C117.25 54.612 113.237 43.7507 105.211 34.416Z" fill="#012595"/>
</svg>
