<svg width="130" height="130" viewBox="0 0 130 130" fill="none" xmlns="http://www.w3.org/2000/svg">
<path d="M24.375 12.1875V117.812H89.375V109.688H32.5V20.3125H73.125V44.6875H97.5V52.8125H105.625V39L104.406 37.7812L80.0313 13.4062L78.8125 12.1875H24.375ZM81.25 26L91.8125 36.5625H81.25V26ZM40.625 52.8125V60.9375H89.375V52.8125H40.625ZM109.688 60.9375V69.0625C102.781 70.2812 97.5 75.9688 97.5 83.2812C97.5 91.4062 103.594 97.5 111.719 97.5H115.781C119.031 97.5 121.875 100.344 121.875 103.594C121.875 106.844 119.031 109.688 115.781 109.688H101.562V117.812H109.688V125.938H117.812V117.812C124.719 116.594 130 110.906 130 103.594C130 95.4688 123.906 89.375 115.781 89.375H111.719C108.469 89.375 105.625 86.5312 105.625 83.2812C105.625 80.0312 108.469 77.1875 111.719 77.1875H125.938V69.0625H117.812V60.9375H109.688ZM40.625 73.125V81.25H69.0625V73.125H40.625ZM77.1875 73.125V81.25H89.375V73.125H77.1875ZM40.625 89.375V97.5H69.0625V89.375H40.625ZM77.1875 89.375V97.5H89.375V89.375H77.1875Z" fill="#0944A4"/>
</svg>
