<svg width="139" height="139" viewBox="0 0 139 139" fill="none" xmlns="http://www.w3.org/2000/svg">
<path d="M121.625 66.6041L130.313 75.2916L89.8288 115.833L63.7083 89.7707L72.3958 81.0832L89.8288 98.4582L121.625 66.6041Z" fill="#012595"/>
<path opacity="0.3" d="M98.4583 28.9584V46.3334H40.5417V28.9584H28.9584V110.042H67.6467L47.3179 89.7709L72.3959 64.693L89.8288 82.068L110.042 61.7972V28.9584H98.4583Z" fill="#012595"/>
<path d="M28.9583 110.042V28.9582H40.5417V46.3332H98.4583V28.9582H110.042V61.797L121.625 50.2136V28.9582C121.625 22.5874 116.412 17.3749 110.042 17.3749H85.8325C83.4 10.6566 77.0292 5.79156 69.5 5.79156C61.9708 5.79156 55.6 10.6566 53.1675 17.3749H28.9583C22.5875 17.3749 17.375 22.5874 17.375 28.9582V110.042C17.375 116.412 22.5875 121.625 28.9583 121.625H79.23L67.6467 110.042H28.9583ZM69.5 17.3749C72.6854 17.3749 75.2917 19.9811 75.2917 23.1666C75.2917 26.352 72.6854 28.9582 69.5 28.9582C66.3146 28.9582 63.7083 26.352 63.7083 23.1666C63.7083 19.9811 66.3146 17.3749 69.5 17.3749Z" fill="#012595"/>
</svg>
