<svg width="134" height="134" viewBox="0 0 134 134" fill="none" xmlns="http://www.w3.org/2000/svg">
<path d="M41.875 75.375H75.375V83.75H41.875V75.375Z" fill="#012595"/>
<path d="M41.875 54.4375H92.125V62.8125H41.875V54.4375Z" fill="#012595"/>
<path d="M41.875 96.3125H62.8125V104.687H41.875V96.3125Z" fill="#012595"/>
<path d="M104.688 20.9375H92.125V16.75C92.125 14.5288 91.2426 12.3986 89.672 10.8279C88.1014 9.25733 85.9712 8.37497 83.75 8.37497H50.25C48.0288 8.37497 45.8986 9.25733 44.328 10.8279C42.7574 12.3986 41.875 14.5288 41.875 16.75V20.9375H29.3125C27.0913 20.9375 24.9611 21.8198 23.3905 23.3904C21.8199 24.9611 20.9375 27.0913 20.9375 29.3125V117.25C20.9375 119.471 21.8199 121.601 23.3905 123.172C24.9611 124.743 27.0913 125.625 29.3125 125.625H104.688C106.909 125.625 109.039 124.743 110.61 123.172C112.18 121.601 113.062 119.471 113.062 117.25V29.3125C113.062 27.0913 112.18 24.9611 110.61 23.3904C109.039 21.8198 106.909 20.9375 104.688 20.9375ZM50.25 16.75H83.75V33.5H50.25V16.75ZM104.688 117.25H29.3125V29.3125H41.875V41.875H92.125V29.3125H104.688V117.25Z" fill="#012595"/>
</svg>
