<svg width="134" height="134" viewBox="0 0 134 134" fill="none" xmlns="http://www.w3.org/2000/svg">
<path d="M50.25 25.125H33.5V8.37497H25.125V25.125H8.375V33.5H25.125V50.25H33.5V33.5H50.25V25.125Z" fill="#012595"/>
<path d="M125.286 69.5376L112.723 40.2251C112.401 39.4717 111.864 38.8295 111.18 38.3784C110.496 37.9273 109.695 37.687 108.875 37.6875H96.3125V29.3125C96.3125 28.2019 95.8713 27.1368 95.086 26.3515C94.3007 25.5662 93.2356 25.125 92.125 25.125H62.8125V33.5H87.9375V86.0782C86.0294 87.1862 84.3595 88.661 83.0241 90.4175C81.6888 92.174 80.7144 94.1775 80.1571 96.3125H53.8429C52.932 92.7186 50.8487 89.5311 47.9227 87.2542C44.9967 84.9773 41.395 83.7411 37.6875 83.7411C33.98 83.7411 30.3783 84.9773 27.4523 87.2542C24.5263 89.5311 22.4431 92.7186 21.5321 96.3125H16.75V58.625H8.375V100.5C8.375 101.611 8.81618 102.676 9.60149 103.461C10.3868 104.246 11.4519 104.687 12.5625 104.687H21.5321C22.4431 108.281 24.5263 111.469 27.4523 113.746C30.3783 116.023 33.98 117.259 37.6875 117.259C41.395 117.259 44.9967 116.023 47.9227 113.746C50.8487 111.469 52.932 108.281 53.8429 104.687H80.1571C81.0681 108.281 83.1513 111.469 86.0773 113.746C89.0033 116.023 92.605 117.259 96.3125 117.259C100.02 117.259 103.622 116.023 106.548 113.746C109.474 111.469 111.557 108.281 112.468 104.687H121.438C122.548 104.687 123.613 104.246 124.399 103.461C125.184 102.676 125.625 101.611 125.625 100.5V71.1875C125.625 70.6202 125.51 70.0588 125.286 69.5376ZM37.6875 108.875C36.0311 108.875 34.4119 108.384 33.0346 107.464C31.6573 106.543 30.5839 105.235 29.95 103.705C29.3161 102.175 29.1503 100.491 29.4734 98.8661C29.7966 97.2415 30.5942 95.7492 31.7655 94.578C32.9367 93.4067 34.429 92.6091 36.0536 92.2859C37.6782 91.9627 39.3621 92.1286 40.8925 92.7625C42.4228 93.3964 43.7308 94.4698 44.6511 95.8471C45.5713 97.2243 46.0625 98.8436 46.0625 100.5C46.0592 102.72 45.1758 104.848 43.6059 106.418C42.036 107.988 39.9077 108.872 37.6875 108.875ZM96.3125 46.0625H106.111L115.089 67H96.3125V46.0625ZM96.3125 108.875C94.6561 108.875 93.0369 108.384 91.6596 107.464C90.2823 106.543 89.2089 105.235 88.575 103.705C87.9411 102.175 87.7753 100.491 88.0984 98.8661C88.4216 97.2415 89.2192 95.7492 90.3905 94.578C91.5618 93.4067 93.054 92.6091 94.6786 92.2859C96.3032 91.9627 97.9872 92.1286 99.5175 92.7625C101.048 93.3964 102.356 94.4698 103.276 95.8471C104.196 97.2243 104.688 98.8436 104.688 100.5C104.685 102.72 103.802 104.849 102.232 106.42C100.662 107.99 98.533 108.873 96.3125 108.875ZM117.25 96.3125H112.468C111.545 92.7256 109.459 89.5462 106.535 87.2727C103.612 84.9993 100.016 83.7603 96.3125 83.75V75.375H117.25V96.3125Z" fill="#012595"/>
</svg>
