<svg width="662" height="604" viewBox="0 0 662 604" fill="none" xmlns="http://www.w3.org/2000/svg">
<path opacity="0.5" fill-rule="evenodd" clip-rule="evenodd" d="M318.727 10.387C377.925 17.0999 435.817 29.5676 484.807 63.4704C534.681 97.9845 567.987 148.117 595.704 202.065C628.549 265.995 672.781 332.089 659.062 402.642C644.819 475.891 587.893 536.223 523.422 573.798C462.462 609.326 389.173 604.968 318.727 600.996C252.224 597.245 185.485 588.693 130.146 551.62C73.3375 513.562 27.417 458.579 8.19161 392.959C-10.7113 328.44 6.38863 261.26 26.2588 197.031C46.4091 131.898 65.3508 59.1 122.824 22.4224C179.358 -13.656 252.089 2.83041 318.727 10.387Z" fill="#F15A25"/>
</svg>
