<svg width="678" height="606" viewBox="0 0 678 606" fill="none" xmlns="http://www.w3.org/2000/svg">
<g clip-path="url(#clip0_18_1160)">
<path d="M3.7992 135.98C2.47157 136.353 1.34626 137.237 0.670123 138.438C-0.00600917 139.639 -0.177759 141.058 0.192556 142.386L87.1556 452.657C87.5291 453.984 88.4138 455.108 89.6159 455.783C90.8179 456.459 92.239 456.63 93.5675 456.26L414.157 366.58C415.485 366.207 416.61 365.323 417.286 364.122C417.963 362.921 418.134 361.501 417.764 360.174L330.801 49.9024C330.428 48.576 329.543 47.4518 328.341 46.7763C327.139 46.1009 325.718 45.9293 324.389 46.2992L3.7992 135.98Z" fill="#E6E6E6"/>
<path d="M97.5963 441.609L403.098 356.149L320.36 60.9506L14.8579 146.411L97.5963 441.609Z" fill="white"/>
<path d="M55.2493 185.828C53.2111 186.398 52.3707 189.781 53.3761 193.368C54.3815 196.955 56.8579 199.41 58.8962 198.84L198.231 159.862C200.269 159.292 201.11 155.91 200.104 152.323C199.099 148.736 196.623 146.281 194.584 146.851L55.2493 185.828Z" fill="#E6E6E6"/>
<path d="M66.4703 225.863C64.432 226.433 63.5917 229.816 64.5971 233.403C65.6025 236.99 68.0788 239.445 70.1171 238.874L209.452 199.897C211.49 199.327 212.331 195.945 211.325 192.358C210.32 188.77 207.843 186.316 205.805 186.886L66.4703 225.863Z" fill="#E6E6E6"/>
<path d="M77.5619 265.436C75.5237 266.007 74.6833 269.389 75.6887 272.976C76.6941 276.563 79.1705 279.018 81.2088 278.448L220.544 239.471C222.582 238.9 223.422 235.518 222.417 231.931C221.412 228.344 218.935 225.889 216.897 226.459L77.5619 265.436Z" fill="#E6E6E6"/>
<path d="M88.7829 305.471C86.7446 306.041 85.9043 309.424 86.9097 313.011C87.9151 316.598 90.3915 319.053 92.4297 318.483L231.765 279.506C233.803 278.935 234.643 275.553 233.638 271.966C232.632 268.379 230.156 265.924 228.118 266.494L88.7829 305.471Z" fill="#E6E6E6"/>
<path d="M265.295 127.532C264.439 127.771 263.639 128.175 262.939 128.723C262.24 129.271 261.655 129.951 261.219 130.725C260.783 131.498 260.504 132.35 260.397 133.232C260.291 134.113 260.36 135.007 260.599 135.862C260.839 136.717 261.245 137.516 261.794 138.214C262.343 138.912 263.024 139.495 263.799 139.93C264.574 140.365 265.427 140.643 266.31 140.748C267.192 140.854 268.087 140.784 268.942 140.544L294.99 133.257C296.717 132.774 298.181 131.625 299.061 130.064C299.94 128.502 300.162 126.655 299.679 124.93C299.195 123.204 298.045 121.742 296.482 120.863C294.919 119.985 293.07 119.763 291.343 120.246L265.295 127.532Z" fill="#E6E6E6"/>
<path d="M276.299 166.791C275.443 167.03 274.642 167.434 273.943 167.982C273.243 168.53 272.659 169.21 272.223 169.983C271.786 170.757 271.507 171.609 271.401 172.49C271.294 173.372 271.363 174.266 271.603 175.121C271.842 175.976 272.248 176.775 272.797 177.473C273.346 178.171 274.028 178.754 274.803 179.189C275.578 179.624 276.431 179.902 277.313 180.007C278.195 180.112 279.09 180.043 279.946 179.803L305.994 172.516C307.721 172.033 309.185 170.884 310.064 169.322C310.943 167.761 311.166 165.914 310.682 164.189C310.199 162.463 309.049 161 307.485 160.122C305.922 159.244 304.074 159.022 302.347 159.505L276.299 166.791Z" fill="#E6E6E6"/>
<path d="M287.302 206.05C286.447 206.289 285.647 206.694 284.949 207.242C284.251 207.79 283.667 208.47 283.232 209.244C282.796 210.017 282.518 210.868 282.412 211.749C282.306 212.63 282.374 213.523 282.614 214.377C282.853 215.232 283.259 216.031 283.807 216.728C284.356 217.426 285.036 218.009 285.81 218.444C286.584 218.879 287.437 219.157 288.318 219.263C289.2 219.369 290.094 219.301 290.949 219.061L316.997 211.775C318.724 211.292 320.188 210.143 321.068 208.581C321.947 207.02 322.169 205.173 321.686 203.447C321.202 201.722 320.052 200.259 318.489 199.381C316.926 198.502 315.077 198.28 313.35 198.763L287.302 206.05Z" fill="#E6E6E6"/>
<path d="M298.306 245.309C296.58 245.794 295.118 246.943 294.241 248.504C293.363 250.065 293.141 251.91 293.625 253.634C294.108 255.358 295.256 256.82 296.818 257.699C298.379 258.578 300.226 258.801 301.953 258.32L328.001 251.034C329.726 250.549 331.188 249.4 332.066 247.839C332.943 246.278 333.165 244.433 332.682 242.708C332.198 240.984 331.05 239.522 329.488 238.644C327.927 237.765 326.08 237.542 324.354 238.022L298.306 245.309Z" fill="#E6E6E6"/>
<path d="M308.819 313.358C307.728 313.662 306.708 314.177 305.816 314.875C304.925 315.573 304.18 316.44 303.625 317.426C303.069 318.411 302.713 319.497 302.578 320.62C302.442 321.743 302.53 322.882 302.835 323.971C303.14 325.061 303.657 326.079 304.357 326.969C305.057 327.858 305.925 328.602 306.912 329.156C307.9 329.71 308.987 330.064 310.111 330.198C311.235 330.332 312.375 330.243 313.465 329.937L346.656 320.653C348.857 320.037 350.722 318.573 351.843 316.583C352.963 314.593 353.246 312.24 352.63 310.042C352.014 307.843 350.549 305.979 348.557 304.86C346.565 303.741 344.21 303.458 342.009 304.073L308.819 313.358Z" fill="#F15A25"/>
<path d="M342.977 279.875L97.3707 348.58L97.982 350.761L343.588 282.056L342.977 279.875Z" fill="#E6E6E6"/>
<path d="M589.685 573.111L569.987 577.868L542.245 504.228L571.317 497.207L589.685 573.111Z" fill="#A0616A"/>
<path d="M536.002 606L535.869 605.45C534.308 598.967 535.385 592.13 538.863 586.439C542.342 580.748 547.937 576.668 554.423 575.094L592.963 565.786L599.012 590.782L536.002 606Z" fill="#2F2E41"/>
<path d="M502.484 586.517L482.219 586.516L472.578 508.425L502.487 508.426L502.484 586.517Z" fill="#A0616A"/>
<path d="M507.392 605.883L442.568 605.88V605.314C442.568 598.644 445.22 592.247 449.941 587.531C454.663 582.814 461.066 580.164 467.742 580.164H467.743L507.393 580.166L507.392 605.883Z" fill="#2F2E41"/>
<path d="M472.562 556.031L452.885 321.756L534.339 306.756L534.66 306.698L558.501 322.009L550.203 408.228L588.409 542.651L555.42 551.324L517.153 426.655L508.396 388.744L503.908 438.006L507.239 559.495L472.562 556.031Z" fill="#0C49A6"/>
<path d="M450.362 327.07L450.147 326.797L478.294 115.074L478.331 114.796L478.529 114.598C478.944 114.184 488.805 104.448 498.949 104.448C500.416 104.448 501.81 104.411 503.147 104.377C510.909 104.175 517.041 104.014 524.328 111.295C531.753 118.712 555.977 145.795 555.977 182.889C555.977 218.792 559.25 330.368 559.283 331.49L559.329 333.066L558.006 332.206C557.68 331.996 525.098 311.27 497.773 330.537C489.233 336.559 481.562 338.67 475.002 338.67C459.736 338.67 450.493 327.236 450.362 327.07Z" fill="#2A2A65"/>
<path d="M514.115 86.9781C533.789 76.2334 541.02 51.5892 530.265 31.9337C519.51 12.2782 494.842 5.0545 475.167 15.7992C455.492 26.5439 448.262 51.1881 459.017 70.8436C469.772 90.4991 494.44 97.7228 514.115 86.9781Z" fill="#A0616A"/>
<path d="M432.49 372.571C434.411 371.083 435.982 369.194 437.093 367.034C438.203 364.875 438.827 362.499 438.919 360.073C439.011 357.647 438.569 355.23 437.625 352.993C436.681 350.756 435.257 348.753 433.455 347.125L456.511 292.794L426.322 298.345L409.056 349.088C406.519 352.295 405.248 356.32 405.483 360.4C405.718 364.481 407.444 368.333 410.332 371.228C413.221 374.123 417.072 375.858 421.156 376.105C425.24 376.353 429.273 375.095 432.49 372.571H432.49Z" fill="#A0616A"/>
<path d="M410.215 330.308L417.639 314.649C417.181 314.373 416.802 313.981 416.543 313.513C409.606 301.504 451.505 201.77 454.298 195.155C453.872 191.557 449.474 153.43 452.69 140.578C456.476 125.45 464.249 118.399 478.682 117.003C494.599 115.509 498.893 137.103 498.934 137.322L498.949 192.836L480.682 256.739L439.021 341.644L410.215 330.308Z" fill="#2A2A65"/>
<path d="M499.832 66.6695C494.965 67.3021 491.294 62.3274 489.591 57.7288C487.888 53.1303 486.591 47.7766 482.36 45.2925C476.579 41.8988 469.182 45.9806 462.571 44.8609C455.106 43.5964 450.252 35.6919 449.871 28.1366C449.491 20.5812 452.5 13.3147 455.453 6.34875L456.484 15.0058C456.346 12.0717 456.964 9.15134 458.279 6.52406C459.594 3.89677 461.562 1.65045 463.994 -6.10352e-05L462.665 12.7028C463.498 5.58636 471.172 0.0720444 478.191 1.5468L477.981 9.11564C486.604 8.0913 495.302 7.06552 503.951 7.84592C512.599 8.62631 521.308 11.36 527.863 17.0501C537.668 25.5616 541.249 39.5768 540.046 52.4978C538.844 65.4188 533.505 77.5571 527.941 89.2829C526.541 92.2331 524.604 95.5622 521.358 95.938C518.441 96.2757 515.772 93.8397 514.865 91.0495C513.958 88.2592 514.401 85.228 514.944 82.345C515.764 77.9898 516.798 73.5382 516.027 69.174C515.256 64.8099 512.113 60.4973 507.71 59.9625C503.306 59.4276 498.8 64.4562 500.917 68.3506L499.832 66.6695Z" fill="#2F2E41"/>
<path d="M677.567 605.975H385.403V603.59H678L677.567 605.975Z" fill="#3F3D56"/>
<path opacity="0.1" d="M-83 132.808V216.586H48.2737V132.808H-83ZM-83 219.171V291.115C-82.2491 291.273 -81.5042 291.424 -80.7654 291.551C-79.7601 291.745 -78.7609 291.921 -77.7374 292.072C-77.5436 292.103 -77.3438 292.133 -77.1318 292.151C-76.7321 292.218 -76.3203 292.272 -75.9207 292.327C-74.9093 292.466 -73.904 292.581 -72.8927 292.672C-72.4143 292.72 -71.9298 292.763 -71.4453 292.799L-70.2766 292.89C-69.6407 292.938 -69.0109 292.975 -68.3871 292.993C-67.9995 292.993 -67.612 293.029 -67.2123 293.041C-66.9095 293.041 -66.6067 293.041 -66.2918 293.041C-65.9769 293.041 -65.5287 293.041 -65.1472 293.041C-64.6264 293.041 -64.1056 293.041 -63.5908 293.041H-62.8944C-62.3736 293.041 -61.8528 293.041 -61.3381 292.993H-61.3017C-60.9444 292.993 -60.5811 292.993 -60.2177 292.944C-60.1169 292.95 -60.0158 292.95 -59.9149 292.944C-59.6121 292.944 -59.3093 292.944 -59.0187 292.902H-58.8067L-56.778 292.744C-56.1118 292.684 -55.4396 292.605 -54.7614 292.533L-53.3806 292.369C-47.7633 291.582 -42.2084 290.4 -36.7572 288.832C-24.5121 285.417 -12.5336 280.639 -0.294617 277.138C15.5294 272.627 33.0128 270.41 48.304 275.927V219.171H-83ZM48.2737 39.5414V-71.9901C33.9015 -72.1458 19.5682 -70.4648 5.62201 -66.9879C-27.6188 -58.6368 -57.4441 -40.5236 -83 -17.3901V39.5353H-76.4112V42.1212H-83V130.222H48.2737V42.1272H-49.3595V39.5414H48.2737ZM216.888 1.86764C208.664 1.57695 200.489 -1.02709 193.094 -5.04821C178.954 -12.7392 167.66 -24.6148 155.039 -34.6373C128.817 -55.512 96.297 -68.1083 62.935 -71.2331V39.5414H250.335L250.801 39.0508L216.888 1.86764ZM233.96 -1.16032L252.061 18.703V-6.36839C245.999 -5.61745 240.688 -3.83097 233.984 -1.18454L233.96 -1.16032ZM252.061 308.98V219.171H213.491C213.388 218.79 213.285 218.402 213.164 218.015C213.279 218.402 213.376 218.79 213.485 219.171H62.9592V284.121C64.3884 285.181 65.7995 286.295 67.1984 287.427C68.7063 288.639 70.196 289.916 71.6918 291.17L73.1998 292.417C73.9204 293.023 74.6471 293.629 75.3799 294.198C76.8333 295.377 78.3008 296.54 79.7825 297.686C80.5153 298.292 81.2662 298.837 82.0111 299.406C93.8365 308.447 106.311 316.606 119.334 323.817C122.253 325.432 125.198 327.009 128.169 328.547C130.149 329.558 132.142 330.564 134.14 331.539C137.144 333.004 140.172 334.417 143.224 335.778C171.364 348.409 201.119 357.077 231.64 361.533C238.419 362.535 245.224 363.322 252.055 363.895V308.974H252.66L252.061 308.98ZM62.9592 42.1272V130.222H252.085V42.1272H62.9592ZM62.9592 132.808V216.586H252.085V132.808H62.9592ZM266.764 -6.47739V21.4887L289.868 -3.86124C282.213 -5.09665 274.512 -5.97879 266.764 -6.50768V-6.47739ZM266.764 132.839V216.586H450.712V132.808L266.764 132.839ZM450.04 315.63L450.688 219.171H266.764V364.858C278.613 365.356 290.479 365.214 302.313 364.434H302.518C308.171 364.079 313.797 363.562 319.396 362.884H319.523C349.397 359.407 378.609 351.613 406.244 339.744L450.04 315.63ZM486.182 146.604C485.491 144.975 484.771 143.358 484.038 141.759C482.669 138.731 481.222 135.788 479.732 132.845H465.38V216.586H501.667C501.648 192.871 495.647 168.647 486.2 146.573L486.182 146.604ZM465.38 219.202V302.167C475.602 292.369 484.238 281.16 490.457 268.345C497.936 252.915 501.358 236.207 501.636 219.19L465.38 219.202ZM465.38 108.427V130.228H478.388C474.453 122.723 470.116 115.436 465.398 108.397L465.38 108.427ZM340.628 9.95831C339.671 9.59496 338.715 9.22555 337.752 8.86825C327.596 5.118 317.219 1.99932 306.679 -0.46994L271.325 38.3302L270.646 39.0508L271.1 39.5474H396.93C379.405 27.4844 360.512 17.5418 340.646 9.92803L340.628 9.95831ZM400.618 42.1575H269.344L266.764 44.5193V130.222H289.377H289.413H450.737V88.7092C436.143 71.0598 419.3 55.3991 400.636 42.1272L400.618 42.1575Z" fill="#F15A25"/>
</g>
<defs>
<clipPath id="clip0_18_1160">
<rect width="678" height="606" fill="white"/>
</clipPath>
</defs>
</svg>
