<svg width="171" height="69" viewBox="0 0 171 69" fill="none" xmlns="http://www.w3.org/2000/svg">
<path d="M72.7363 8.65064C72.7363 8.65064 74.1964 4.20527 78.5638 4.1551C82.9312 4.10492 84.3929 8.62923 84.3929 8.62923H89.5728C89.5728 8.62923 89.3046 -0.0896159 78.2972 0.000696803C67.2898 0.0910095 67.7976 8.65064 67.7976 8.65064H72.7363Z" fill="#F15A25"/>
<path d="M57.682 13.3313C57.9233 11.9867 58.5454 10.0901 62.7604 9.62849C66.9755 9.1669 97.9537 9.62849 97.9537 9.62849C99.0836 9.80762 100.115 10.2604 100.904 10.924C101.694 11.5875 102.202 12.4289 102.359 13.3313L103.045 25.4332L76.8784 18.1982C76.6859 18.127 76.4766 18.0886 76.2642 18.0857C76.0517 18.0828 75.8408 18.1153 75.6454 18.1812C75.4499 18.247 75.2742 18.3447 75.1298 18.4679C74.9853 18.5911 74.8754 18.737 74.8071 18.896C74.7388 19.055 74.7138 19.2237 74.7335 19.3909C74.7533 19.5581 74.8175 19.7202 74.922 19.8664C75.0264 20.0127 75.1686 20.1399 75.3395 20.2398C75.5103 20.3397 75.7059 20.4099 75.9135 20.446L103.235 28.3333L105 45.3924C104.905 46.6611 104.19 47.851 103.005 48.7105C101.82 49.57 100.259 50.0318 98.652 49.9983H61.1226C61.1226 49.9983 54.8381 50.0886 55.0032 45.2519C55.1682 40.4151 55.803 33.6417 55.803 33.6417L84.0262 41.3183C84.3348 41.33 84.6417 41.2755 84.9143 41.1607C85.187 41.0459 85.4153 40.875 85.5751 40.666C85.7607 40.3426 85.7867 39.976 85.6481 39.6381C85.5096 39.3003 85.2164 39.0156 84.8261 38.8397L56.1966 30.8119C56.1966 30.8119 56.933 17.6864 57.682 13.3313Z" fill="url(#paint0_linear_488_231)"/>
<path d="M1.88028 65.1059C1.48303 65.1059 1.15641 64.9912 0.900414 64.7617C0.653241 64.5233 0.529655 64.232 0.529655 63.8877C0.529655 63.5346 0.653241 63.2389 0.900414 63.0006C1.15641 62.7622 1.48303 62.643 1.88028 62.643C2.26869 62.643 2.58648 62.7622 2.83366 63.0006C3.08966 63.2389 3.21766 63.5346 3.21766 63.8877C3.21766 64.232 3.08966 64.5233 2.83366 64.7617C2.58648 64.9912 2.26869 65.1059 1.88028 65.1059ZM5.61734 65.1059C5.2201 65.1059 4.89348 64.9912 4.63748 64.7617C4.39031 64.5233 4.26672 64.232 4.26672 63.8877C4.26672 63.5346 4.39031 63.2389 4.63748 63.0006C4.89348 62.7622 5.2201 62.643 5.61734 62.643C6.00576 62.643 6.32355 62.7622 6.57072 63.0006C6.82672 63.2389 6.95472 63.5346 6.95472 63.8877C6.95472 64.232 6.82672 64.5233 6.57072 64.7617C6.32355 64.9912 6.00576 65.1059 5.61734 65.1059ZM9.35441 65.1059C8.95717 65.1059 8.63055 64.9912 8.37455 64.7617C8.12738 64.5233 8.00379 64.232 8.00379 63.8877C8.00379 63.5346 8.12738 63.2389 8.37455 63.0006C8.63055 62.7622 8.95717 62.643 9.35441 62.643C9.74283 62.643 10.0606 62.7622 10.3078 63.0006C10.5638 63.2389 10.6918 63.5346 10.6918 63.8877C10.6918 64.232 10.5638 64.5233 10.3078 64.7617C10.0606 64.9912 9.74283 65.1059 9.35441 65.1059ZM16.5475 65L14.2964 61.9015V65H12.0322V55.2014H14.2964V60.6171L16.5342 57.6113H19.3282L16.2562 61.3189L19.3547 65H16.5475ZM27.1825 61.1865C27.1825 61.3983 27.1692 61.619 27.1428 61.8486H22.0183C22.0537 62.3076 22.1993 62.6607 22.4553 62.9079C22.7201 63.1462 23.0423 63.2654 23.4219 63.2654C23.9869 63.2654 24.3797 63.027 24.6004 62.5503H27.0103C26.8868 63.0359 26.6617 63.4728 26.335 63.8612C26.0172 64.2497 25.6156 64.5542 25.1301 64.7749C24.6446 64.9956 24.1017 65.1059 23.5014 65.1059C22.7775 65.1059 22.1331 64.9514 21.5681 64.6425C21.0032 64.3335 20.5618 63.8921 20.244 63.3183C19.9262 62.7446 19.7673 62.0737 19.7673 61.3057C19.7673 60.5377 19.9218 59.8668 20.2308 59.293C20.5486 58.7192 20.9899 58.2778 21.5549 57.9688C22.1199 57.6599 22.7687 57.5054 23.5014 57.5054C24.2164 57.5054 24.852 57.6554 25.4081 57.9556C25.9643 58.2557 26.3968 58.6839 26.7058 59.24C27.0236 59.7961 27.1825 60.445 27.1825 61.1865ZM24.8652 60.5906C24.8652 60.2022 24.7328 59.8932 24.468 59.6637C24.2032 59.4342 23.8721 59.3194 23.4749 59.3194C23.0953 59.3194 22.7731 59.4298 22.5083 59.6505C22.2523 59.8712 22.0934 60.1846 22.0316 60.5906H24.8652ZM35.342 61.1865C35.342 61.3983 35.3287 61.619 35.3022 61.8486H30.1778C30.2131 62.3076 30.3588 62.6607 30.6148 62.9079C30.8796 63.1462 31.2018 63.2654 31.5814 63.2654C32.1464 63.2654 32.5392 63.027 32.7599 62.5503H35.1698C35.0462 63.0359 34.8211 63.4728 34.4945 63.8612C34.1767 64.2497 33.7751 64.5542 33.2896 64.7749C32.804 64.9956 32.2611 65.1059 31.6609 65.1059C30.937 65.1059 30.2926 64.9514 29.7276 64.6425C29.1627 64.3335 28.7213 63.8921 28.4035 63.3183C28.0857 62.7446 27.9268 62.0737 27.9268 61.3057C27.9268 60.5377 28.0813 59.8668 28.3902 59.293C28.708 58.7192 29.1494 58.2778 29.7144 57.9688C30.2793 57.6599 30.9282 57.5054 31.6609 57.5054C32.3759 57.5054 33.0115 57.6554 33.5676 57.9556C34.1238 58.2557 34.5563 58.6839 34.8653 59.24C35.1831 59.7961 35.342 60.445 35.342 61.1865ZM33.0247 60.5906C33.0247 60.2022 32.8923 59.8932 32.6275 59.6637C32.3627 59.4342 32.0316 59.3194 31.6344 59.3194C31.2548 59.3194 30.9326 59.4298 30.6678 59.6505C30.4118 59.8712 30.2529 60.1846 30.1911 60.5906H33.0247ZM38.8008 58.6574C39.0214 58.3131 39.326 58.035 39.7144 57.8232C40.1028 57.6113 40.5574 57.5054 41.0783 57.5054C41.6874 57.5054 42.2391 57.6599 42.7334 57.9688C43.2278 58.2778 43.6162 58.7192 43.8987 59.293C44.19 59.8668 44.3357 60.5332 44.3357 61.2924C44.3357 62.0516 44.19 62.7225 43.8987 63.3051C43.6162 63.8789 43.2278 64.3247 42.7334 64.6425C42.2391 64.9514 41.6874 65.1059 41.0783 65.1059C40.5663 65.1059 40.1117 65 39.7144 64.7881C39.326 64.5763 39.0214 64.3026 38.8008 63.9672V68.5222H36.5365V57.6113H38.8008V58.6574ZM42.0317 61.2924C42.0317 60.7274 41.8728 60.2861 41.555 59.9683C41.246 59.6417 40.862 59.4783 40.403 59.4783C39.9528 59.4783 39.5688 59.6417 39.251 59.9683C38.942 60.2949 38.7875 60.7407 38.7875 61.3057C38.7875 61.8706 38.942 62.3164 39.251 62.643C39.5688 62.9697 39.9528 63.133 40.403 63.133C40.8532 63.133 41.2372 62.9697 41.555 62.643C41.8728 62.3076 42.0317 61.8574 42.0317 61.2924ZM55.8772 57.6113L51.2427 68.509H48.8063L50.5012 64.7484L47.4954 57.6113H50.0245L51.7326 62.2326L53.4275 57.6113H55.8772ZM60.0593 65.1059C59.3354 65.1059 58.6822 64.9514 58.0995 64.6425C57.5258 64.3335 57.0711 63.8921 56.7357 63.3183C56.4091 62.7446 56.2458 62.0737 56.2458 61.3057C56.2458 60.5465 56.4135 59.88 56.7489 59.3062C57.0844 58.7236 57.5434 58.2778 58.126 57.9688C58.7087 57.6599 59.3619 57.5054 60.0858 57.5054C60.8096 57.5054 61.4629 57.6599 62.0455 57.9688C62.6281 58.2778 63.0871 58.7236 63.4226 59.3062C63.758 59.88 63.9258 60.5465 63.9258 61.3057C63.9258 62.0648 63.7536 62.7357 63.4093 63.3183C63.0739 63.8921 62.6104 64.3335 62.019 64.6425C61.4364 64.9514 60.7831 65.1059 60.0593 65.1059ZM60.0593 63.1462C60.4918 63.1462 60.8582 62.9873 61.1583 62.6695C61.4673 62.3517 61.6218 61.8971 61.6218 61.3057C61.6218 60.7142 61.4717 60.2596 61.1715 59.9418C60.8802 59.624 60.5183 59.4651 60.0858 59.4651C59.6444 59.4651 59.278 59.624 58.9867 59.9418C58.6954 60.2508 58.5498 60.7054 58.5498 61.3057C58.5498 61.8971 58.691 62.3517 58.9735 62.6695C59.2648 62.9873 59.6267 63.1462 60.0593 63.1462ZM72.423 57.6113V65H70.1587V63.9937C69.9292 64.3203 69.6158 64.5851 69.2186 64.7881C68.8302 64.9823 68.3976 65.0794 67.9209 65.0794C67.356 65.0794 66.8572 64.9559 66.4247 64.7087C65.9921 64.4527 65.6567 64.0863 65.4183 63.6097C65.18 63.133 65.0608 62.5724 65.0608 61.928V57.6113H67.3118V61.6234C67.3118 62.1178 67.4398 62.5018 67.6958 62.7754C67.9518 63.0491 68.2961 63.1859 68.7287 63.1859C69.17 63.1859 69.5187 63.0491 69.7747 62.7754C70.0307 62.5018 70.1587 62.1178 70.1587 61.6234V57.6113H72.423ZM76.3137 58.8428C76.5785 58.4367 76.9096 58.1189 77.3068 57.8894C77.704 57.651 78.1454 57.5319 78.6309 57.5319V59.9286H78.0086C77.4436 59.9286 77.0199 60.0521 76.7374 60.2993C76.4549 60.5377 76.3137 60.9614 76.3137 61.5705V65H74.0494V57.6113H76.3137V58.8428ZM85.525 65.1059C84.8806 65.1059 84.3068 64.9956 83.8037 64.7749C83.3005 64.5542 82.9032 64.2541 82.6119 63.8745C82.3206 63.4861 82.1573 63.0535 82.122 62.5768H84.3598C84.3863 62.8328 84.5054 63.0403 84.7173 63.1992C84.9292 63.3581 85.1896 63.4375 85.4985 63.4375C85.781 63.4375 85.9973 63.3846 86.1474 63.2786C86.3063 63.1639 86.3857 63.0182 86.3857 62.8417C86.3857 62.6298 86.2754 62.4753 86.0547 62.3782C85.834 62.2723 85.4765 62.1575 84.9821 62.0339C84.4525 61.9103 84.0111 61.7823 83.658 61.6499C83.3049 61.5087 83.0003 61.2924 82.7443 61.0011C82.4883 60.701 82.3603 60.2993 82.3603 59.7961C82.3603 59.3724 82.4751 58.9884 82.7046 58.6441C82.943 58.291 83.2872 58.013 83.7374 57.8099C84.1965 57.6069 84.7394 57.5054 85.3661 57.5054C86.293 57.5054 87.0213 57.7349 87.551 58.1939C88.0894 58.653 88.3984 59.2621 88.4779 60.0212H86.3857C86.3504 59.7652 86.2357 59.5622 86.0414 59.4121C85.8561 59.2621 85.6089 59.187 85.2999 59.187C85.0351 59.187 84.8321 59.24 84.6908 59.3459C84.5496 59.443 84.479 59.5799 84.479 59.7564C84.479 59.9683 84.5893 60.1272 84.81 60.2331C85.0395 60.339 85.3926 60.445 85.8693 60.5509C86.4166 60.6921 86.8624 60.8334 87.2067 60.9746C87.551 61.107 87.8511 61.3277 88.1071 61.6367C88.3719 61.9368 88.5088 62.3429 88.5176 62.8549C88.5176 63.2874 88.394 63.6759 88.1468 64.0201C87.9085 64.3556 87.5598 64.6204 87.1008 64.8146C86.6505 65.0088 86.1253 65.1059 85.525 65.1059ZM94.4447 57.5319C95.2921 57.5319 95.9718 57.8143 96.4838 58.3793C96.9958 58.9354 97.2518 59.7034 97.2518 60.6833V65H95.0008V60.9879C95.0008 60.4935 94.8728 60.1095 94.6168 59.8359C94.3608 59.5622 94.0165 59.4254 93.584 59.4254C93.1514 59.4254 92.8071 59.5622 92.5511 59.8359C92.2951 60.1095 92.1671 60.4935 92.1671 60.9879V65H89.9029V55.2014H92.1671V58.6044C92.3967 58.2778 92.71 58.0174 93.1073 57.8232C93.5045 57.629 93.9503 57.5319 94.4447 57.5319ZM102.189 65.1059C101.465 65.1059 100.811 64.9514 100.229 64.6425C99.6551 64.3335 99.2004 63.8921 98.865 63.3183C98.5384 62.7446 98.3751 62.0737 98.3751 61.3057C98.3751 60.5465 98.5428 59.88 98.8782 59.3062C99.2137 58.7236 99.6727 58.2778 100.255 57.9688C100.838 57.6599 101.491 57.5054 102.215 57.5054C102.939 57.5054 103.592 57.6599 104.175 57.9688C104.757 58.2778 105.216 58.7236 105.552 59.3062C105.887 59.88 106.055 60.5465 106.055 61.3057C106.055 62.0648 105.883 62.7357 105.539 63.3183C105.203 63.8921 104.74 64.3335 104.148 64.6425C103.566 64.9514 102.912 65.1059 102.189 65.1059ZM102.189 63.1462C102.621 63.1462 102.987 62.9873 103.288 62.6695C103.597 62.3517 103.751 61.8971 103.751 61.3057C103.751 60.7142 103.601 60.2596 103.301 59.9418C103.01 59.624 102.648 59.4651 102.215 59.4651C101.774 59.4651 101.407 59.624 101.116 59.9418C100.825 60.2508 100.679 60.7054 100.679 61.3057C100.679 61.8971 100.82 62.3517 101.103 62.6695C101.394 62.9873 101.756 63.1462 102.189 63.1462ZM109.521 58.6574C109.741 58.3131 110.046 58.035 110.434 57.8232C110.823 57.6113 111.277 57.5054 111.798 57.5054C112.407 57.5054 112.959 57.6599 113.453 57.9688C113.948 58.2778 114.336 58.7192 114.619 59.293C114.91 59.8668 115.055 60.5332 115.055 61.2924C115.055 62.0516 114.91 62.7225 114.619 63.3051C114.336 63.8789 113.948 64.3247 113.453 64.6425C112.959 64.9514 112.407 65.1059 111.798 65.1059C111.286 65.1059 110.831 65 110.434 64.7881C110.046 64.5763 109.741 64.3026 109.521 63.9672V68.5222H107.256V57.6113H109.521V58.6574ZM112.751 61.2924C112.751 60.7274 112.593 60.2861 112.275 59.9683C111.966 59.6417 111.582 59.4783 111.123 59.4783C110.673 59.4783 110.289 59.6417 109.971 59.9683C109.662 60.2949 109.507 60.7407 109.507 61.3057C109.507 61.8706 109.662 62.3164 109.971 62.643C110.289 62.9697 110.673 63.133 111.123 63.133C111.573 63.133 111.957 62.9697 112.275 62.643C112.593 62.3076 112.751 61.8574 112.751 61.2924ZM120.188 56.8433C119.791 56.8433 119.464 56.7286 119.208 56.499C118.961 56.2607 118.838 55.9694 118.838 55.6251C118.838 55.272 118.961 54.9807 119.208 54.7512C119.464 54.5128 119.791 54.3937 120.188 54.3937C120.577 54.3937 120.894 54.5128 121.142 54.7512C121.398 54.9807 121.526 55.272 121.526 55.6251C121.526 55.9694 121.398 56.2607 121.142 56.499C120.894 56.7286 120.577 56.8433 120.188 56.8433ZM121.314 57.6113V65H119.049V57.6113H121.314ZM127.457 57.5319C128.322 57.5319 129.01 57.8143 129.522 58.3793C130.043 58.9354 130.304 59.7034 130.304 60.6833V65H128.053V60.9879C128.053 60.4935 127.925 60.1095 127.669 59.8359C127.413 59.5622 127.068 59.4254 126.636 59.4254C126.203 59.4254 125.859 59.5622 125.603 59.8359C125.347 60.1095 125.219 60.4935 125.219 60.9879V65H122.955V57.6113H125.219V58.5912C125.448 58.2646 125.757 58.0086 126.146 57.8232C126.534 57.629 126.971 57.5319 127.457 57.5319ZM138.801 63.08V65H137.649C136.828 65 136.188 64.8014 135.729 64.4041C135.27 63.9981 135.041 63.3404 135.041 62.4312V59.4916H134.14V57.6113H135.041V55.8105H137.305V57.6113H138.788V59.4916H137.305V62.4577C137.305 62.6783 137.358 62.8372 137.464 62.9343C137.57 63.0314 137.746 63.08 137.993 63.08H138.801ZM142.327 58.8428C142.591 58.4367 142.922 58.1189 143.32 57.8894C143.717 57.651 144.158 57.5319 144.644 57.5319V59.9286H144.022C143.457 59.9286 143.033 60.0521 142.75 60.2993C142.468 60.5377 142.327 60.9614 142.327 61.5705V65H140.062V57.6113H142.327V58.8428ZM145.276 61.2924C145.276 60.5332 145.417 59.8668 145.7 59.293C145.991 58.7192 146.384 58.2778 146.878 57.9688C147.372 57.6599 147.924 57.5054 148.533 57.5054C149.054 57.5054 149.509 57.6113 149.897 57.8232C150.294 58.035 150.599 58.3131 150.811 58.6574V57.6113H153.075V65H150.811V63.9539C150.59 64.2982 150.281 64.5763 149.884 64.7881C149.496 65 149.041 65.1059 148.52 65.1059C147.92 65.1059 147.372 64.9514 146.878 64.6425C146.384 64.3247 145.991 63.8789 145.7 63.3051C145.417 62.7225 145.276 62.0516 145.276 61.2924ZM150.811 61.3057C150.811 60.7407 150.652 60.2949 150.334 59.9683C150.025 59.6417 149.646 59.4783 149.195 59.4783C148.745 59.4783 148.361 59.6417 148.043 59.9683C147.734 60.2861 147.58 60.7274 147.58 61.2924C147.58 61.8574 147.734 62.3076 148.043 62.643C148.361 62.9697 148.745 63.133 149.195 63.133C149.646 63.133 150.025 62.9697 150.334 62.643C150.652 62.3164 150.811 61.8706 150.811 61.3057ZM154.263 61.3057C154.263 60.5377 154.417 59.8668 154.726 59.293C155.044 58.7192 155.481 58.2778 156.037 57.9688C156.602 57.6599 157.247 57.5054 157.971 57.5054C158.897 57.5054 159.67 57.7481 160.288 58.2337C160.915 58.7192 161.325 59.4033 161.519 60.2861H159.109C158.906 59.7211 158.513 59.4386 157.931 59.4386C157.516 59.4386 157.185 59.6019 156.938 59.9286C156.691 60.2463 156.567 60.7054 156.567 61.3057C156.567 61.9059 156.691 62.3694 156.938 62.696C157.185 63.0138 157.516 63.1727 157.931 63.1727C158.513 63.1727 158.906 62.8902 159.109 62.3252H161.519C161.325 63.1903 160.915 63.8701 160.288 64.3644C159.661 64.8588 158.889 65.1059 157.971 65.1059C157.247 65.1059 156.602 64.9514 156.037 64.6425C155.481 64.3335 155.044 63.8921 154.726 63.3183C154.417 62.7446 154.263 62.0737 154.263 61.3057ZM167.246 65L164.995 61.9015V65H162.73V55.2014H164.995V60.6171L167.233 57.6113H170.026L166.954 61.3189L170.053 65H167.246Z" fill="#012595"/>
<defs>
<linearGradient id="paint0_linear_488_231" x1="110.934" y1="50.0245" x2="67.0493" y2="-5.72854" gradientUnits="userSpaceOnUse">
<stop stop-color="#012595"/>
<stop offset="1" stop-color="#0C49A6"/>
</linearGradient>
</defs>
</svg>
