<svg width="256" height="29" viewBox="0 0 256 29" fill="none" xmlns="http://www.w3.org/2000/svg">
<path d="M0.446018 0H1.78521V0.42C3.64952 0.830625 3.91755 2.53453 4.02276 3.18562C4.07275 3.49359 4.17415 4.09594 4.29984 4.83375H27.618C28.5406 4.83375 28.6439 5.68266 28.5234 6.15234L25.7879 18.0431C25.668 18.5128 25.1628 18.8962 24.6677 18.8962H4.22319C3.73093 18.8962 3.3296 19.2905 3.3296 19.7752C3.3296 20.2598 3.73093 20.6541 4.22319 20.6541H26.5387C26.7754 20.6541 27.0025 20.7467 27.1699 20.9115C27.3373 21.0763 27.4313 21.2999 27.4313 21.533C27.4313 21.7661 27.3373 21.9896 27.1699 22.1544C27.0025 22.3193 26.7754 22.4119 26.5387 22.4119H25.3818C25.9404 22.7155 26.4061 23.1611 26.7303 23.7022C27.0545 24.2433 27.2254 24.86 27.2252 25.4883H26.3326C26.3326 26.9438 25.1328 28.125 23.6546 28.125C22.1764 28.125 20.9767 26.9438 20.9767 25.4883H20.0841C20.084 24.86 20.255 24.2432 20.5793 23.7021C20.9036 23.161 21.3693 22.7155 21.9279 22.4119H9.3148C9.87344 22.7155 10.3392 23.161 10.6635 23.7021C10.9877 24.2432 11.1587 24.86 11.1586 25.4883H10.266C10.2528 26.1791 9.96477 26.8372 9.46391 27.3212C8.96306 27.8051 8.28934 28.0762 7.58761 28.0762C6.88587 28.0762 6.21215 27.8051 5.7113 27.3212C5.21044 26.8372 4.92244 26.1791 4.90921 25.4883H4.01657C4.01652 24.8601 4.18749 24.2433 4.51169 23.7023C4.83588 23.1612 5.30146 22.7156 5.85993 22.4119H4.22224C3.51213 22.4115 2.83121 22.1336 2.32908 21.6392C1.82696 21.1448 1.5447 20.4743 1.54432 19.7752C1.54438 19.4288 1.61372 19.0859 1.74838 18.766C1.88304 18.446 2.08039 18.1554 2.32914 17.9105C2.5779 17.6657 2.87319 17.4715 3.19818 17.339C3.52316 17.2065 3.87146 17.1384 4.22319 17.1384H4.55501L3.41339 10.1494C3.09537 8.30344 2.40982 4.31578 2.24891 3.32391C2.16798 2.82281 2.08943 2.47078 1.78521 2.27344V2.63625H0.446018C0.327908 2.63588 0.214735 2.58955 0.131172 2.50736C0.0476112 2.42517 0.000436783 2.31379 -6.48499e-05 2.1975V0.439687C0.00018692 0.323232 0.0472507 0.21161 0.130838 0.12922C0.214428 0.0468296 0.327744 0.000371404 0.446018 0ZM23.6546 26.8069C24.0097 26.8065 24.3501 26.6675 24.6012 26.4203C24.8522 26.1731 24.9935 25.8379 24.9938 25.4883H22.3159C22.3163 25.8378 22.4574 26.1729 22.7084 26.4201C22.9594 26.6673 23.2997 26.8064 23.6546 26.8069ZM7.58713 26.8069C7.94227 26.8066 8.28281 26.6676 8.53398 26.4204C8.78514 26.1732 8.92642 25.838 8.9268 25.4883H6.24793C6.24856 25.8378 6.38986 26.1728 6.64087 26.42C6.89188 26.6671 7.23215 26.8063 7.58713 26.8069ZM8.68543 7.02844C8.66972 6.9093 8.6111 6.79968 8.52024 6.71951C8.42938 6.63933 8.3123 6.59393 8.19032 6.59156H5.36386C5.11821 6.59156 4.9473 6.78656 4.98586 7.02609L5.26579 8.79375C5.30293 9.03281 5.53573 9.22828 5.78186 9.22828H8.47787C8.53464 9.22976 8.59106 9.21912 8.64326 9.19708C8.69545 9.17504 8.74218 9.14213 8.78022 9.10062C8.81827 9.0591 8.84673 9.00997 8.86365 8.95659C8.88057 8.90321 8.88555 8.84686 8.87824 8.79141L8.68543 7.02844ZM9.16579 11.423C9.1498 11.304 9.0911 11.1945 9.00029 11.1144C8.90949 11.0342 8.79258 10.9887 8.67068 10.9861H6.06036C5.81423 10.9861 5.6438 11.1811 5.68093 11.4206L5.89183 12.7491C5.92944 12.9881 6.16176 13.1836 6.40789 13.1836H8.91062C8.96734 13.1849 9.02369 13.1742 9.07581 13.1521C9.12792 13.13 9.17458 13.0971 9.21259 13.0556C9.25061 13.0141 9.27908 12.965 9.29606 12.9117C9.31305 12.8584 9.31814 12.8021 9.311 12.7467L9.16579 11.423ZM26.2478 8.80172L26.7001 7.01813C26.7591 6.78281 26.6058 6.59156 26.3597 6.59156H22.9991C22.7525 6.59156 22.5301 6.78797 22.504 7.02844L22.3116 8.79187C22.3045 8.84726 22.3096 8.90351 22.3265 8.95678C22.3435 9.01005 22.3719 9.0591 22.4099 9.10057C22.4478 9.14204 22.4944 9.17496 22.5465 9.19708C22.5986 9.2192 22.6548 9.23 22.7115 9.22875H25.6922C25.9379 9.22875 26.1883 9.03609 26.2478 8.80172ZM24.6906 13.1836C24.9362 13.1836 25.1866 12.9914 25.2457 12.757L25.5865 11.4131C25.6461 11.1778 25.4937 10.9866 25.2476 10.9866H22.5202C22.274 10.9866 22.0512 11.183 22.025 11.4234L21.8803 12.7472C21.8731 12.8026 21.8781 12.8589 21.895 12.9122C21.912 12.9655 21.9404 13.0146 21.9784 13.056C22.0163 13.0975 22.063 13.1305 22.1151 13.1526C22.1672 13.1746 22.2235 13.1854 22.2802 13.1841H24.6906V13.1836ZM21.8489 17.1389H23.6889C23.936 17.1389 24.185 16.9467 24.2445 16.7123L24.5854 15.3684C24.6444 15.1331 24.492 14.9419 24.2454 14.9419H22.0888C21.8427 14.9419 21.6199 15.1383 21.5928 15.3787L21.449 16.7025C21.4418 16.7579 21.4468 16.8141 21.4637 16.8674C21.4806 16.9207 21.5091 16.9698 21.5471 17.0112C21.585 17.0527 21.6317 17.0855 21.6838 17.1076C21.7359 17.1296 21.7922 17.1403 21.8489 17.1389ZM16.3778 16.6992C16.3783 16.8158 16.4257 16.9275 16.5095 17.0099C16.5934 17.0923 16.7069 17.1387 16.8253 17.1389H19.1538C19.2757 17.1364 19.3927 17.091 19.4835 17.0108C19.5742 16.9306 19.6328 16.8211 19.6485 16.702L19.7932 15.3783C19.8006 15.3229 19.7957 15.2666 19.7788 15.2132C19.762 15.1599 19.7336 15.1108 19.6957 15.0693C19.6577 15.0277 19.6111 14.9948 19.559 14.9727C19.5068 14.9507 19.4505 14.94 19.3938 14.9414H16.8253C16.7068 14.9414 16.5931 14.9877 16.5092 15.0701C16.4254 15.1526 16.3781 15.2644 16.3778 15.3811V16.6992ZM16.3778 12.7444C16.3783 12.861 16.4257 12.9727 16.5095 13.0551C16.5934 13.1374 16.7069 13.1838 16.8253 13.1841H19.5856C19.8313 13.1841 20.0531 12.9877 20.0807 12.7472L20.2245 11.4234C20.2318 11.3681 20.2269 11.3118 20.21 11.2585C20.1931 11.2052 20.1647 11.1561 20.1268 11.1146C20.0889 11.0731 20.0423 11.0402 19.9902 11.0181C19.9381 10.996 19.8818 10.9852 19.8251 10.9866H16.8253C16.7068 10.9866 16.5931 11.0329 16.5092 11.1153C16.4254 11.1977 16.3781 11.3096 16.3778 11.4262V12.7444ZM16.3778 8.78906C16.3783 8.90568 16.4257 9.01737 16.5095 9.09975C16.5934 9.18213 16.7069 9.2285 16.8253 9.22875H20.016C20.138 9.22638 20.2551 9.18098 20.3459 9.10081C20.4368 9.02063 20.4954 8.91101 20.5111 8.79187L20.7035 7.02844C20.7107 6.97304 20.7056 6.91676 20.6887 6.86345C20.6718 6.81014 20.6434 6.76106 20.6054 6.71958C20.5674 6.67809 20.5208 6.64517 20.4687 6.62307C20.4166 6.60098 20.3603 6.59023 20.3035 6.59156H16.8249C16.7064 6.59156 16.5927 6.63786 16.5088 6.72029C16.4249 6.80272 16.3776 6.91455 16.3774 7.03125V8.78906H16.3778ZM11.5414 16.702C11.5572 16.8211 11.6159 16.9307 11.7067 17.0109C11.7975 17.091 11.9146 17.1364 12.0365 17.1389H14.1408C14.2592 17.1387 14.3727 17.0923 14.4564 17.0099C14.5402 16.9275 14.5874 16.8158 14.5878 16.6992V15.3806C14.5875 15.264 14.5404 15.1522 14.4566 15.0698C14.3728 14.9874 14.2592 14.9411 14.1408 14.9409H11.7966C11.5509 14.9409 11.37 15.1373 11.3967 15.3778L11.5414 16.702ZM11.1101 12.7467C11.1259 12.8658 11.1845 12.9754 11.2754 13.0555C11.3662 13.1357 11.4832 13.1811 11.6052 13.1836H14.1408C14.2592 13.1833 14.3727 13.137 14.4564 13.0546C14.5402 12.9722 14.5874 12.8605 14.5878 12.7439V11.4253C14.5875 11.3087 14.5404 11.1969 14.4566 11.1145C14.3728 11.0321 14.2592 10.9857 14.1408 10.9856H11.3653C11.1191 10.9856 10.9387 11.182 10.9658 11.4225L11.1101 12.7467ZM10.6788 8.79187C10.6946 8.91097 10.7532 9.02054 10.8441 9.1007C10.9349 9.18085 11.0519 9.22629 11.1739 9.22875H14.1408C14.2592 9.2285 14.3727 9.18211 14.4564 9.09972C14.5402 9.01733 14.5874 8.90564 14.5878 8.78906V7.03125C14.5875 6.91463 14.5404 6.80287 14.4566 6.72045C14.3728 6.63804 14.2592 6.59169 14.1408 6.59156H10.8858C10.6397 6.59156 10.4593 6.78797 10.4855 7.02844L10.6788 8.79187ZM7.23579 17.1389V17.1356L7.2396 17.1389H9.34194C9.35575 17.1389 9.36765 17.1323 9.38145 17.1305C9.38383 17.1145 9.38383 17.0986 9.38669 17.0817L9.40764 17.1248C9.40183 17.1264 9.39595 17.1276 9.39002 17.1286C9.60949 17.1038 9.7666 16.9252 9.74137 16.702L9.59759 15.3783C9.5816 15.2593 9.5229 15.1498 9.43209 15.0697C9.34129 14.9896 9.22437 14.9441 9.10247 14.9414H6.68592C6.43979 14.9414 6.27031 15.1364 6.30744 15.3759L6.51834 16.7044C6.555 16.9434 6.78732 17.1389 7.03345 17.1389H7.23579Z" fill="white"/>
<path d="M47.9059 21.14C46.8793 21.14 45.9593 20.9733 45.1459 20.64C44.3326 20.3067 43.6793 19.8133 43.1859 19.16C42.7059 18.5067 42.4526 17.72 42.4259 16.8H46.0659C46.1193 17.32 46.2993 17.72 46.6059 18C46.9126 18.2667 47.3126 18.4 47.8059 18.4C48.3126 18.4 48.7126 18.2867 49.0059 18.06C49.2993 17.82 49.4459 17.4933 49.4459 17.08C49.4459 16.7333 49.3259 16.4467 49.0859 16.22C48.8593 15.9933 48.5726 15.8067 48.2259 15.66C47.8926 15.5133 47.4126 15.3467 46.7859 15.16C45.8793 14.88 45.1393 14.6 44.5659 14.32C43.9926 14.04 43.4993 13.6267 43.0859 13.08C42.6726 12.5333 42.4659 11.82 42.4659 10.94C42.4659 9.63333 42.9393 8.61333 43.8859 7.88C44.8326 7.13333 46.0659 6.76 47.5859 6.76C49.1326 6.76 50.3793 7.13333 51.3259 7.88C52.2726 8.61333 52.7793 9.64 52.8459 10.96H49.1459C49.1193 10.5067 48.9526 10.1533 48.6459 9.9C48.3393 9.63333 47.9459 9.5 47.4659 9.5C47.0526 9.5 46.7193 9.61333 46.4659 9.84C46.2126 10.0533 46.0859 10.3667 46.0859 10.78C46.0859 11.2333 46.2993 11.5867 46.7259 11.84C47.1526 12.0933 47.8193 12.3667 48.7259 12.66C49.6326 12.9667 50.3659 13.26 50.9259 13.54C51.4993 13.82 51.9926 14.2267 52.4059 14.76C52.8193 15.2933 53.0259 15.98 53.0259 16.82C53.0259 17.62 52.8193 18.3467 52.4059 19C52.0059 19.6533 51.4193 20.1733 50.6459 20.56C49.8726 20.9467 48.9593 21.14 47.9059 21.14ZM61.9906 9.72C63.2706 9.72 64.2973 10.1467 65.0706 11C65.844 11.84 66.2306 13 66.2306 14.48V21H62.8306V14.94C62.8306 14.1933 62.6373 13.6133 62.2506 13.2C61.864 12.7867 61.344 12.58 60.6906 12.58C60.0373 12.58 59.5173 12.7867 59.1306 13.2C58.744 13.6133 58.5506 14.1933 58.5506 14.94V21H55.1306V6.2H58.5506V11.34C58.8973 10.8467 59.3706 10.4533 59.9706 10.16C60.5706 9.86667 61.244 9.72 61.9906 9.72ZM73.6872 21.16C72.5939 21.16 71.6072 20.9267 70.7272 20.46C69.8605 19.9933 69.1739 19.3267 68.6672 18.46C68.1739 17.5933 67.9272 16.58 67.9272 15.42C67.9272 14.2733 68.1805 13.2667 68.6872 12.4C69.1939 11.52 69.8872 10.8467 70.7672 10.38C71.6472 9.91333 72.6339 9.68 73.7272 9.68C74.8205 9.68 75.8072 9.91333 76.6872 10.38C77.5672 10.8467 78.2605 11.52 78.7672 12.4C79.2739 13.2667 79.5272 14.2733 79.5272 15.42C79.5272 16.5667 79.2672 17.58 78.7472 18.46C78.2405 19.3267 77.5405 19.9933 76.6472 20.46C75.7672 20.9267 74.7805 21.16 73.6872 21.16ZM73.6872 18.2C74.3405 18.2 74.8939 17.96 75.3472 17.48C75.8139 17 76.0472 16.3133 76.0472 15.42C76.0472 14.5267 75.8205 13.84 75.3672 13.36C74.9272 12.88 74.3805 12.64 73.7272 12.64C73.0605 12.64 72.5072 12.88 72.0672 13.36C71.6272 13.8267 71.4072 14.5133 71.4072 15.42C71.4072 16.3133 71.6205 17 72.0472 17.48C72.4872 17.96 73.0339 18.2 73.6872 18.2ZM84.7616 11.42C85.0949 10.9 85.5549 10.48 86.1416 10.16C86.7282 9.84 87.4149 9.68 88.2016 9.68C89.1216 9.68 89.9549 9.91333 90.7016 10.38C91.4482 10.8467 92.0349 11.5133 92.4616 12.38C92.9016 13.2467 93.1216 14.2533 93.1216 15.4C93.1216 16.5467 92.9016 17.56 92.4616 18.44C92.0349 19.3067 91.4482 19.98 90.7016 20.46C89.9549 20.9267 89.1216 21.16 88.2016 21.16C87.4282 21.16 86.7416 21 86.1416 20.68C85.5549 20.36 85.0949 19.9467 84.7616 19.44V26.32H81.3416V9.84H84.7616V11.42ZM89.6416 15.4C89.6416 14.5467 89.4016 13.88 88.9216 13.4C88.4549 12.9067 87.8749 12.66 87.1816 12.66C86.5016 12.66 85.9216 12.9067 85.4416 13.4C84.9749 13.8933 84.7416 14.5667 84.7416 15.42C84.7416 16.2733 84.9749 16.9467 85.4416 17.44C85.9216 17.9333 86.5016 18.18 87.1816 18.18C87.8616 18.18 88.4416 17.9333 88.9216 17.44C89.4016 16.9333 89.6416 16.2533 89.6416 15.4ZM98.3358 11.7C98.7358 11.0867 99.2358 10.6067 99.8358 10.26C100.436 9.9 101.102 9.72 101.836 9.72V13.34H100.896C100.042 13.34 99.4024 13.5267 98.9758 13.9C98.5491 14.26 98.3358 14.9 98.3358 15.82V21H94.9158V9.84H98.3358V11.7ZM102.79 15.4C102.79 14.2533 103.004 13.2467 103.43 12.38C103.87 11.5133 104.464 10.8467 105.21 10.38C105.957 9.91333 106.79 9.68 107.71 9.68C108.497 9.68 109.184 9.84 109.77 10.16C110.37 10.48 110.83 10.9 111.15 11.42V9.84H114.57V21H111.15V19.42C110.817 19.94 110.35 20.36 109.75 20.68C109.164 21 108.477 21.16 107.69 21.16C106.784 21.16 105.957 20.9267 105.21 20.46C104.464 19.98 103.87 19.3067 103.43 18.44C103.004 17.56 102.79 16.5467 102.79 15.4ZM111.15 15.42C111.15 14.5667 110.91 13.8933 110.43 13.4C109.964 12.9067 109.39 12.66 108.71 12.66C108.03 12.66 107.45 12.9067 106.97 13.4C106.504 13.88 106.27 14.5467 106.27 15.4C106.27 16.2533 106.504 16.9333 106.97 17.44C107.45 17.9333 108.03 18.18 108.71 18.18C109.39 18.18 109.964 17.9333 110.43 17.44C110.91 16.9467 111.15 16.2733 111.15 15.42ZM116.365 15.42C116.365 14.26 116.598 13.2467 117.065 12.38C117.545 11.5133 118.205 10.8467 119.045 10.38C119.898 9.91333 120.871 9.68 121.965 9.68C123.365 9.68 124.531 10.0467 125.465 10.78C126.411 11.5133 127.031 12.5467 127.325 13.88H123.685C123.378 13.0267 122.785 12.6 121.905 12.6C121.278 12.6 120.778 12.8467 120.405 13.34C120.031 13.82 119.845 14.5133 119.845 15.42C119.845 16.3267 120.031 17.0267 120.405 17.52C120.778 18 121.278 18.24 121.905 18.24C122.785 18.24 123.378 17.8133 123.685 16.96H127.325C127.031 18.2667 126.411 19.2933 125.465 20.04C124.518 20.7867 123.351 21.16 121.965 21.16C120.871 21.16 119.898 20.9267 119.045 20.46C118.205 19.9933 117.545 19.3267 117.065 18.46C116.598 17.5933 116.365 16.58 116.365 15.42ZM135.974 21L132.574 16.32V21H129.154V6.2H132.574V14.38L135.954 9.84H140.174L135.534 15.44L140.214 21H135.974ZM146.057 21.16C145.084 21.16 144.217 20.9933 143.457 20.66C142.697 20.3267 142.097 19.8733 141.657 19.3C141.217 18.7133 140.971 18.06 140.917 17.34H144.297C144.337 17.7267 144.517 18.04 144.837 18.28C145.157 18.52 145.551 18.64 146.017 18.64C146.444 18.64 146.771 18.56 146.997 18.4C147.237 18.2267 147.357 18.0067 147.357 17.74C147.357 17.42 147.191 17.1867 146.857 17.04C146.524 16.88 145.984 16.7067 145.237 16.52C144.437 16.3333 143.771 16.14 143.237 15.94C142.704 15.7267 142.244 15.4 141.857 14.96C141.471 14.5067 141.277 13.9 141.277 13.14C141.277 12.5 141.451 11.92 141.797 11.4C142.157 10.8667 142.677 10.4467 143.357 10.14C144.051 9.83333 144.871 9.68 145.817 9.68C147.217 9.68 148.317 10.0267 149.117 10.72C149.931 11.4133 150.397 12.3333 150.517 13.48H147.357C147.304 13.0933 147.131 12.7867 146.837 12.56C146.557 12.3333 146.184 12.22 145.717 12.22C145.317 12.22 145.011 12.3 144.797 12.46C144.584 12.6067 144.477 12.8133 144.477 13.08C144.477 13.4 144.644 13.64 144.977 13.8C145.324 13.96 145.857 14.12 146.577 14.28C147.404 14.4933 148.077 14.7067 148.597 14.92C149.117 15.12 149.571 15.4533 149.957 15.92C150.357 16.3733 150.564 16.9867 150.577 17.76C150.577 18.4133 150.391 19 150.017 19.52C149.657 20.0267 149.131 20.4267 148.437 20.72C147.757 21.0133 146.964 21.16 146.057 21.16ZM160.328 6.96V21H156.908V6.96H160.328ZM169.606 9.72C170.913 9.72 171.953 10.1467 172.726 11C173.513 11.84 173.906 13 173.906 14.48V21H170.506V14.94C170.506 14.1933 170.313 13.6133 169.926 13.2C169.54 12.7867 169.02 12.58 168.366 12.58C167.713 12.58 167.193 12.7867 166.806 13.2C166.42 13.6133 166.226 14.1933 166.226 14.94V21H162.806V9.84H166.226V11.32C166.573 10.8267 167.04 10.44 167.626 10.16C168.213 9.86667 168.873 9.72 169.606 9.72ZM181.303 17.8L183.723 9.84H187.363L183.403 21H179.183L175.223 9.84H178.883L181.303 17.8ZM199.322 15.24C199.322 15.56 199.303 15.8933 199.263 16.24H191.523C191.576 16.9333 191.796 17.4667 192.183 17.84C192.583 18.2 193.069 18.38 193.643 18.38C194.496 18.38 195.089 18.02 195.423 17.3H199.063C198.876 18.0333 198.536 18.6933 198.043 19.28C197.563 19.8667 196.956 20.3267 196.223 20.66C195.489 20.9933 194.669 21.16 193.763 21.16C192.669 21.16 191.696 20.9267 190.843 20.46C189.989 19.9933 189.323 19.3267 188.843 18.46C188.363 17.5933 188.123 16.58 188.123 15.42C188.123 14.26 188.356 13.2467 188.823 12.38C189.303 11.5133 189.969 10.8467 190.823 10.38C191.676 9.91333 192.656 9.68 193.763 9.68C194.843 9.68 195.803 9.90667 196.643 10.36C197.483 10.8133 198.136 11.46 198.603 12.3C199.083 13.14 199.322 14.12 199.322 15.24ZM195.823 14.34C195.823 13.7533 195.623 13.2867 195.223 12.94C194.823 12.5933 194.323 12.42 193.723 12.42C193.149 12.42 192.663 12.5867 192.263 12.92C191.876 13.2533 191.636 13.7267 191.543 14.34H195.823ZM207.927 9.72C209.233 9.72 210.273 10.1467 211.047 11C211.833 11.84 212.227 13 212.227 14.48V21H208.827V14.94C208.827 14.1933 208.633 13.6133 208.247 13.2C207.86 12.7867 207.34 12.58 206.687 12.58C206.033 12.58 205.513 12.7867 205.127 13.2C204.74 13.6133 204.547 14.1933 204.547 14.94V21H201.127V9.84H204.547V11.32C204.893 10.8267 205.36 10.44 205.947 10.16C206.533 9.86667 207.193 9.72 207.927 9.72ZM220.823 18.1V21H219.083C217.843 21 216.877 20.7 216.183 20.1C215.49 19.4867 215.143 18.4933 215.143 17.12V12.68H213.783V9.84H215.143V7.12H218.563V9.84H220.803V12.68H218.563V17.16C218.563 17.4933 218.643 17.7333 218.803 17.88C218.963 18.0267 219.23 18.1 219.603 18.1H220.823ZM227.808 21.16C226.715 21.16 225.728 20.9267 224.848 20.46C223.982 19.9933 223.295 19.3267 222.788 18.46C222.295 17.5933 222.048 16.58 222.048 15.42C222.048 14.2733 222.302 13.2667 222.808 12.4C223.315 11.52 224.008 10.8467 224.888 10.38C225.768 9.91333 226.755 9.68 227.848 9.68C228.942 9.68 229.928 9.91333 230.808 10.38C231.688 10.8467 232.382 11.52 232.888 12.4C233.395 13.2667 233.648 14.2733 233.648 15.42C233.648 16.5667 233.388 17.58 232.868 18.46C232.362 19.3267 231.662 19.9933 230.768 20.46C229.888 20.9267 228.902 21.16 227.808 21.16ZM227.808 18.2C228.462 18.2 229.015 17.96 229.468 17.48C229.935 17 230.168 16.3133 230.168 15.42C230.168 14.5267 229.942 13.84 229.488 13.36C229.048 12.88 228.502 12.64 227.848 12.64C227.182 12.64 226.628 12.88 226.188 13.36C225.748 13.8267 225.528 14.5133 225.528 15.42C225.528 16.3133 225.742 17 226.168 17.48C226.608 17.96 227.155 18.2 227.808 18.2ZM238.883 11.7C239.283 11.0867 239.783 10.6067 240.383 10.26C240.983 9.9 241.649 9.72 242.383 9.72V13.34H241.443C240.589 13.34 239.949 13.5267 239.523 13.9C239.096 14.26 238.883 14.9 238.883 15.82V21H235.463V9.84H238.883V11.7ZM255.417 9.84L248.417 26.3H244.737L247.297 20.62L242.757 9.84H246.577L249.157 16.82L251.717 9.84H255.417Z" fill="white"/>
</svg>
