<svg width="103" height="110" viewBox="0 0 103 110" fill="none" xmlns="http://www.w3.org/2000/svg">
<path d="M5.598 104.888C4.626 104.888 3.684 104.75 2.772 104.474C1.872 104.198 1.158 103.832 0.63 103.376L1.44 101.558C1.956 101.966 2.586 102.302 3.33 102.566C4.086 102.818 4.842 102.944 5.598 102.944C6.534 102.944 7.23 102.794 7.686 102.494C8.154 102.194 8.388 101.798 8.388 101.306C8.388 100.946 8.256 100.652 7.992 100.424C7.74 100.184 7.416 99.9978 7.02 99.8658C6.624 99.7338 6.084 99.5838 5.4 99.4158C4.44 99.1878 3.66 98.9598 3.06 98.7318C2.472 98.5038 1.962 98.1498 1.53 97.6698C1.11 97.1778 0.9 96.5178 0.9 95.6898C0.9 94.9938 1.086 94.3638 1.458 93.7998C1.842 93.2238 2.412 92.7678 3.168 92.4318C3.936 92.0958 4.872 91.9278 5.976 91.9278C6.744 91.9278 7.5 92.0238 8.244 92.2158C8.988 92.4078 9.63 92.6838 10.17 93.0438L9.432 94.8618C8.88 94.5378 8.304 94.2918 7.704 94.1238C7.104 93.9558 6.522 93.8718 5.958 93.8718C5.034 93.8718 4.344 94.0278 3.888 94.3398C3.444 94.6518 3.222 95.0658 3.222 95.5818C3.222 95.9418 3.348 96.2358 3.6 96.4638C3.864 96.6918 4.194 96.8718 4.59 97.0038C4.986 97.1358 5.526 97.2858 6.21 97.4538C7.146 97.6698 7.914 97.8978 8.514 98.1378C9.114 98.3658 9.624 98.7198 10.044 99.1998C10.476 99.6798 10.692 100.328 10.692 101.144C10.692 101.84 10.5 102.47 10.116 103.034C9.744 103.598 9.174 104.048 8.406 104.384C7.638 104.72 6.702 104.888 5.598 104.888ZM18.2503 94.9878C19.4623 94.9878 20.4343 95.3418 21.1663 96.0498C21.8983 96.7578 22.2643 97.8078 22.2643 99.1998V104.708H20.0143V99.4878C20.0143 98.6478 19.8163 98.0178 19.4203 97.5978C19.0243 97.1658 18.4603 96.9498 17.7283 96.9498C16.9003 96.9498 16.2463 97.2018 15.7663 97.7058C15.2863 98.1978 15.0463 98.9118 15.0463 99.8478V104.708H12.7963V91.3518H15.0463V96.2118C15.4183 95.8158 15.8743 95.5158 16.4143 95.3118C16.9663 95.0958 17.5783 94.9878 18.2503 94.9878ZM29.5265 104.834C28.5545 104.834 27.6785 104.624 26.8985 104.204C26.1185 103.784 25.5065 103.202 25.0625 102.458C24.6305 101.702 24.4145 100.85 24.4145 99.9018C24.4145 98.9538 24.6305 98.1078 25.0625 97.3638C25.5065 96.6198 26.1185 96.0378 26.8985 95.6178C27.6785 95.1978 28.5545 94.9878 29.5265 94.9878C30.5105 94.9878 31.3925 95.1978 32.1725 95.6178C32.9525 96.0378 33.5585 96.6198 33.9905 97.3638C34.4345 98.1078 34.6565 98.9538 34.6565 99.9018C34.6565 100.85 34.4345 101.702 33.9905 102.458C33.5585 103.202 32.9525 103.784 32.1725 104.204C31.3925 104.624 30.5105 104.834 29.5265 104.834ZM29.5265 102.908C30.3545 102.908 31.0385 102.632 31.5785 102.08C32.1185 101.528 32.3885 100.802 32.3885 99.9018C32.3885 99.0018 32.1185 98.2758 31.5785 97.7238C31.0385 97.1718 30.3545 96.8958 29.5265 96.8958C28.6985 96.8958 28.0145 97.1718 27.4745 97.7238C26.9465 98.2758 26.6825 99.0018 26.6825 99.9018C26.6825 100.802 26.9465 101.528 27.4745 102.08C28.0145 102.632 28.6985 102.908 29.5265 102.908ZM42.136 94.9878C43.072 94.9878 43.906 95.1918 44.638 95.5998C45.382 96.0078 45.964 96.5838 46.384 97.3278C46.804 98.0718 47.014 98.9298 47.014 99.9018C47.014 100.874 46.804 101.738 46.384 102.494C45.964 103.238 45.382 103.814 44.638 104.222C43.906 104.63 43.072 104.834 42.136 104.834C40.84 104.834 39.814 104.402 39.058 103.538V108.2H36.808V95.0958H38.95V96.3558C39.322 95.8998 39.778 95.5578 40.318 95.3298C40.87 95.1018 41.476 94.9878 42.136 94.9878ZM41.884 102.908C42.712 102.908 43.39 102.632 43.918 102.08C44.458 101.528 44.728 100.802 44.728 99.9018C44.728 99.0018 44.458 98.2758 43.918 97.7238C43.39 97.1718 42.712 96.8958 41.884 96.8958C41.344 96.8958 40.858 97.0218 40.426 97.2738C39.994 97.5138 39.652 97.8618 39.4 98.3178C39.148 98.7738 39.022 99.3018 39.022 99.9018C39.022 100.502 39.148 101.03 39.4 101.486C39.652 101.942 39.994 102.296 40.426 102.548C40.858 102.788 41.344 102.908 41.884 102.908ZM57.6079 104.708L55.0339 101.018C54.9259 101.03 54.7639 101.036 54.5479 101.036H51.7039V104.708H49.3639V92.1078H54.5479C55.6399 92.1078 56.5879 92.2878 57.3919 92.6478C58.2079 93.0078 58.8319 93.5238 59.2639 94.1958C59.6959 94.8678 59.9119 95.6658 59.9119 96.5898C59.9119 97.5378 59.6779 98.3538 59.2099 99.0378C58.7539 99.7218 58.0939 100.232 57.2299 100.568L60.1279 104.708H57.6079ZM57.5539 96.5898C57.5539 95.7858 57.2899 95.1678 56.7619 94.7358C56.2339 94.3038 55.4599 94.0878 54.4399 94.0878H51.7039V99.1098H54.4399C55.4599 99.1098 56.2339 98.8938 56.7619 98.4618C57.2899 98.0178 57.5539 97.3938 57.5539 96.5898ZM65.898 94.9878C67.314 94.9878 68.394 95.3298 69.138 96.0138C69.894 96.6858 70.272 97.7058 70.272 99.0738V104.708H68.148V103.538C67.872 103.958 67.476 104.282 66.96 104.51C66.456 104.726 65.844 104.834 65.124 104.834C64.404 104.834 63.774 104.714 63.234 104.474C62.694 104.222 62.274 103.88 61.974 103.448C61.686 103.004 61.542 102.506 61.542 101.954C61.542 101.09 61.86 100.4 62.496 99.8838C63.144 99.3558 64.158 99.0918 65.538 99.0918H68.022V98.9478C68.022 98.2758 67.818 97.7598 67.41 97.3998C67.014 97.0398 66.42 96.8598 65.628 96.8598C65.088 96.8598 64.554 96.9438 64.026 97.1118C63.51 97.2798 63.072 97.5138 62.712 97.8138L61.83 96.1758C62.334 95.7918 62.94 95.4978 63.648 95.2938C64.356 95.0898 65.106 94.9878 65.898 94.9878ZM65.592 103.196C66.156 103.196 66.654 103.07 67.086 102.818C67.53 102.554 67.842 102.182 68.022 101.702V100.586H65.7C64.404 100.586 63.756 101.012 63.756 101.864C63.756 102.272 63.918 102.596 64.242 102.836C64.566 103.076 65.016 103.196 65.592 103.196ZM77.6575 104.834C76.6615 104.834 75.7675 104.624 74.9755 104.204C74.1835 103.784 73.5655 103.202 73.1215 102.458C72.6775 101.702 72.4555 100.85 72.4555 99.9018C72.4555 98.9538 72.6775 98.1078 73.1215 97.3638C73.5655 96.6198 74.1775 96.0378 74.9575 95.6178C75.7495 95.1978 76.6495 94.9878 77.6575 94.9878C78.6055 94.9878 79.4335 95.1798 80.1415 95.5638C80.8615 95.9478 81.4015 96.4998 81.7615 97.2198L80.0335 98.2278C79.7575 97.7838 79.4095 97.4538 78.9895 97.2378C78.5815 97.0098 78.1315 96.8958 77.6395 96.8958C76.7995 96.8958 76.1035 97.1718 75.5515 97.7238C74.9995 98.2638 74.7235 98.9898 74.7235 99.9018C74.7235 100.814 74.9935 101.546 75.5335 102.098C76.0855 102.638 76.7875 102.908 77.6395 102.908C78.1315 102.908 78.5815 102.8 78.9895 102.584C79.4095 102.356 79.7575 102.02 80.0335 101.576L81.7615 102.584C81.3895 103.304 80.8435 103.862 80.1235 104.258C79.4155 104.642 78.5935 104.834 77.6575 104.834ZM87.5426 100.586L85.8686 102.17V104.708H83.6186V91.3518H85.8686V99.4158L90.5306 95.0958H93.2306L89.2166 99.1278L93.6086 104.708H90.8726L87.5426 100.586ZM97.7331 104.834C96.9531 104.834 96.1911 104.732 95.4471 104.528C94.7031 104.324 94.1091 104.066 93.6651 103.754L94.5291 102.044C94.9611 102.332 95.4771 102.566 96.0771 102.746C96.6891 102.914 97.2891 102.998 97.8771 102.998C99.2211 102.998 99.8931 102.644 99.8931 101.936C99.8931 101.6 99.7191 101.366 99.3711 101.234C99.0351 101.102 98.4891 100.976 97.7331 100.856C96.9411 100.736 96.2931 100.598 95.7891 100.442C95.2971 100.286 94.8651 100.016 94.4931 99.6318C94.1331 99.2358 93.9531 98.6898 93.9531 97.9938C93.9531 97.0818 94.3311 96.3558 95.0871 95.8158C95.8551 95.2638 96.8871 94.9878 98.1831 94.9878C98.8431 94.9878 99.5031 95.0658 100.163 95.2218C100.823 95.3658 101.363 95.5638 101.783 95.8158L100.919 97.5258C100.103 97.0458 99.1851 96.8058 98.1651 96.8058C97.5051 96.8058 97.0011 96.9078 96.6531 97.1118C96.3171 97.3038 96.1491 97.5618 96.1491 97.8858C96.1491 98.2458 96.3291 98.5038 96.6891 98.6598C97.0611 98.8038 97.6311 98.9418 98.3991 99.0738C99.1671 99.1938 99.7971 99.3318 100.289 99.4878C100.781 99.6438 101.201 99.9078 101.549 100.28C101.909 100.652 102.089 101.18 102.089 101.864C102.089 102.764 101.699 103.484 100.919 104.024C100.139 104.564 99.0771 104.834 97.7331 104.834Z" fill="white"/>
<path d="M42.3478 13.7909C42.3478 13.7909 44.1874 6.70404 49.6903 6.62405C55.1933 6.54407 57.035 13.7567 57.035 13.7567H63.5617C63.5617 13.7567 63.2238 -0.142866 49.3544 0.00111084C35.4851 0.145087 36.1249 13.7909 36.1249 13.7909H42.3478Z" fill="#F15A25"/>
<path d="M23.3794 21.2528C23.6833 19.1092 24.4671 16.0856 29.7781 15.3498C35.0891 14.6139 74.1217 15.3498 74.1217 15.3498C75.5454 15.6353 76.8449 16.3572 77.8396 17.415C78.8344 18.4729 79.475 19.8142 79.6726 21.2528L80.5365 40.5457L47.5667 29.0116C47.3242 28.898 47.0606 28.8369 46.7929 28.8322C46.5252 28.8276 46.2595 28.8794 46.0132 28.9844C45.7669 29.0894 45.5455 29.2451 45.3635 29.4415C45.1815 29.6379 45.0429 29.8705 44.9569 30.124C44.8709 30.3776 44.8393 30.6464 44.8643 30.913C44.8892 31.1796 44.9701 31.4379 45.1017 31.6711C45.2332 31.9043 45.4125 32.1071 45.6277 32.2663C45.843 32.4255 46.0895 32.5375 46.351 32.595L80.7764 45.1689L83 72.3645C82.8803 74.3871 81.9789 76.284 80.4863 77.6542C78.9937 79.0244 77.0269 79.7607 75.0015 79.7073H27.7145C27.7145 79.7073 19.7961 79.8513 20.004 72.1405C20.212 64.4298 21.0118 53.6316 21.0118 53.6316L56.573 65.8696C56.9618 65.8882 57.3485 65.8014 57.692 65.6184C58.0356 65.4353 58.3232 65.1629 58.5246 64.8297C58.7584 64.3141 58.7913 63.7297 58.6167 63.1911C58.4421 62.6526 58.0727 62.1986 57.5808 61.9182L21.5077 49.1203C21.5077 49.1203 22.4355 28.1957 23.3794 21.2528Z" fill="url(#paint0_linear_677_225)"/>
<defs>
<linearGradient id="paint0_linear_677_225" x1="90.4763" y1="79.7491" x2="18.5027" y2="7.47853" gradientUnits="userSpaceOnUse">
<stop stop-color="#012595"/>
<stop offset="1" stop-color="#0C49A6"/>
</linearGradient>
</defs>
</svg>
