<svg width="59" height="59" viewBox="0 0 59 59" fill="none" xmlns="http://www.w3.org/2000/svg">
<path d="M8.1725 15.6345C11.6215 11.8954 16.8406 10 23.6821 10H26.1405V16.93L24.164 17.3258C20.796 17.9994 18.4532 19.3245 17.1995 21.269C16.5453 22.3166 16.1743 23.516 16.1228 24.75H23.6821C24.3341 24.75 24.9594 25.009 25.4204 25.47C25.8815 25.9311 26.1405 26.5563 26.1405 27.2083V44.4167C26.1405 47.1282 23.9353 49.3333 21.2238 49.3333H6.47379C5.8218 49.3333 5.19651 49.0743 4.73549 48.6133C4.27446 48.1523 4.01546 47.527 4.01546 46.875V34.5833L4.02283 27.4075C4.00071 27.1346 3.53362 20.6692 8.1725 15.6345ZM48.2655 49.3333H33.5155C32.8635 49.3333 32.2382 49.0743 31.7772 48.6133C31.3161 48.1523 31.0571 47.527 31.0571 46.875V34.5833L31.0645 27.4075C31.0424 27.1346 30.5753 20.6692 35.2142 15.6345C38.6632 11.8954 43.8822 10 50.7238 10H53.1821V16.93L51.2056 17.3258C47.8377 17.9994 45.4949 19.3245 44.2412 21.269C43.587 22.3166 43.216 23.516 43.1644 24.75H50.7238C51.3758 24.75 52.0011 25.009 52.4621 25.47C52.9231 25.9311 53.1821 26.5563 53.1821 27.2083V44.4167C53.1821 47.1282 50.977 49.3333 48.2655 49.3333Z" fill="white"/>
</svg>
